<svg xmlns="http://www.w3.org/2000/svg" viewBox="0 0 192 192" width="192" height="192">
  <defs><clipPath id="b"><path d="M96,8 C128,-4 163,10 172,43 C181,76 176,107 168,125 C158,148 140,160 117,162 C94,164 74,158 58,145 C37,129 22,105 19,80 C14,53 24,29 40,17 C56,4 75,17 96,8Z"/></clipPath></defs>
  <path d="M96,8 C128,-4 163,10 172,43 C181,76 176,107 168,125 C158,148 140,160 117,162 C94,164 74,158 58,145 C37,129 22,105 19,80 C14,53 24,29 40,17 C56,4 75,17 96,8Z" fill="#080c18"/>
  <g clip-path="url(#b)">
    <rect x="0" y="0" width="192" height="54" fill="#0d1f3c"/>
    <rect x="0" y="52" width="192" height="56" fill="#1e1458"/>
    <rect x="0" y="106" width="192" height="64" fill="#0d0b2e"/>
    <path d="M96 87 Q90 73 96 64 Q104 54 116 61 Q129 70 124 83 Q117 98 102 98 Q81 97 73 81 Q63 62 74 46 Q86 27 106 32 Q129 37 135 59 Q143 83 132 102 Q119 124 95 125 Q64 124 49 99 Q32 72 41 47 Q52 20 83 17 Q118 14 137 41 Q157 67 148 98" fill="none" stroke="#818cf8" stroke-width="3" stroke-linecap="round"/>
    <path d="M96 87 Q88 71 96 61 Q106 49 120 58 Q136 70 128 87 Q119 105 100 105 Q74 104 64 84 Q52 60 66 42 Q82 22 108 28 Q136 35 144 60 Q154 89 140 110 Q124 133 95 134 Q58 132 42 103 Q24 72 36 44 Q50 12 85 10 Q124 8 146 39 Q168 70 158 104" fill="none" stroke="#c7d2fe" stroke-width="1" stroke-linecap="round" opacity="0.28"/>
    <rect x="91" y="12" width="10" height="35" rx="5" fill="#818cf8" opacity="0.55"/>
    <rect x="91" y="151" width="10" height="30" rx="5" fill="#818cf8" opacity="0.35"/>
    <circle cx="37" cy="82" r="5" fill="#e879f9" opacity="0.88"/>
    <circle cx="150" cy="92" r="5" fill="#34d399" opacity="0.88"/>
    <circle cx="96" cy="29" r="4" fill="#f472b6" opacity="0.75"/>
    <circle cx="96" cy="86" r="10" fill="#1e1458"/>
    <circle cx="96" cy="86" r="6" fill="#818cf8" opacity="0.92"/>
    <circle cx="96" cy="86" r="2.5" fill="#ffffff"/>
  </g>
</svg>
